<svg xmlns="http://www.w3.org/2000/svg" viewBox="0 0 969.23 905.39"><defs><style>.cls-1{fill:#7014f2;}.cls-2{fill:#00f59b;}</style></defs><g id="Layer_2" data-name="Layer 2"><g id="Logo"><path class="cls-1" d="M684.13,262.93C617.82,196.61,654.5,3,488.58,0c-1.31,0-2.62,0-4,0a1687.47,1687.47,0,0,0-239,16.68C130.19,33.18,36.72,120,13.67,234.25A690.1,690.1,0,0,0,1.56,325.78c-.2,2.86-.38,5.78-.55,8.74C1,335.77.88,337,.82,338.28q-.33,6.64-.51,13.61c0,1.14-.08,2.27-.1,3.41-.1,4.19-.14,8.5-.16,12.87,0,1.26,0,2.52,0,3.78,0,20.44.94,40.61,2.65,60.51.15,1.65.24,3.32.39,5,.4,4.28.91,8.52,1.39,12.78.33,2.92.6,5.85,1,8.76.42,3.39.94,6.75,1.42,10.13.52,3.72,1,7.46,1.58,11.17.43,2.75.94,5.47,1.41,8.21.72,4.28,1.42,8.58,2.22,12.82.43,2.24.92,4.45,1.36,6.69.94,4.71,1.87,9.42,2.91,14.09.4,1.81.86,3.6,1.27,5.41,1.16,5,2.33,10.07,3.6,15,.38,1.51.82,3,1.21,4.51,1.37,5.23,2.77,10.46,4.26,15.64.37,1.28.78,2.54,1.16,3.83,1.58,5.35,3.19,10.68,4.89,16,.37,1.16.78,2.29,1.16,3.44,1.77,5.37,3.56,10.71,5.46,16,.39,1.09.82,2.17,1.22,3.27,1.92,5.29,3.89,10.56,5.94,15.77.45,1.12.92,2.22,1.37,3.34,2.06,5.14,4.15,10.25,6.33,15.31.52,1.19,1.07,2.36,1.59,3.55,2.16,4.93,4.36,9.84,6.63,14.69.62,1.31,1.27,2.59,1.89,3.9,2.23,4.66,4.49,9.3,6.82,13.88.78,1.52,1.59,3,2.38,4.53,2.24,4.3,4.49,8.59,6.82,12.82.16.29.31.6.47.89h0c49.93,90.24,120.21,162.81,203,208.17,21.85,12,46.84-10.33,37.08-33.25a880.49,880.49,0,0,1-45.37-137.57A1706.53,1706.53,0,0,0,484.62,743.9a1689.37,1689.37,0,0,0,239.06-16.64c115.4-16.54,208.83-103.32,231.92-217.58A695.52,695.52,0,0,0,969.23,372C969.23,233.54,755,333.85,684.13,262.93ZM252.07,496.7a65.8,65.8,0,1,1,65.8-65.79A65.79,65.79,0,0,1,252.07,496.7Zm194.91,0a65.8,65.8,0,1,1,65.79-65.79A65.8,65.8,0,0,1,447,496.7Zm194.9,0a65.8,65.8,0,1,1,65.8-65.79A65.8,65.8,0,0,1,641.88,496.7Z"/><path class="cls-2" d="M954,233.75A527.75,527.75,0,0,0,666.92,6.18C702.45,69.45,703.69,160.53,745.11,202,788.44,245.3,885.24,224.74,954,233.75Z"/></g></g></svg>